<?xml version="1.0" standalone="no"?>
<!DOCTYPE svg PUBLIC "-//W3C//DTD SVG 20010904//EN"
 "http://www.w3.org/TR/2001/REC-SVG-20010904/DTD/svg10.dtd">
<svg version="1.0" xmlns="http://www.w3.org/2000/svg"
 width="261.000000pt" height="218.000000pt" viewBox="0 0 261.000000 218.000000"
 preserveAspectRatio="xMidYMid meet">
<metadata>
Created by potrace 1.10, written by Peter Selinger 2001-2011
</metadata>
<g transform="translate(0.000000,218.000000) scale(0.050000,-0.050000)"
fill="#000000" stroke="none">
<path d="M2591 3878 c-293 -72 -605 -250 -846 -484 -80 -77 -145 -148 -145
-156 0 -9 -27 -56 -60 -105 -244 -361 -300 -584 -300 -1184 l0 -465 70 -84
c39 -46 70 -77 70 -68 0 9 11 5 24 -8 47 -47 254 -21 804 104 670 152 702 151
563 -18 -76 -93 -219 -170 -391 -210 -144 -33 -174 -49 -275 -146 l-85 -82 0
-314 0 -313 88 -81 c108 -100 174 -114 390 -84 335 46 725 238 932 458 22 24
66 68 97 98 328 311 472 747 473 1424 0 463 -11 502 -171 600 -91 57 -206 38
-1147 -192 -316 -77 -356 -72 -279 32 78 105 418 280 545 280 15 0 79 48 142
107 l113 107 -7 325 -6 326 -97 87 c-115 105 -224 114 -502 46z m429 -468 l0
-310 -88 0 c-310 0 -668 -248 -807 -560 -40 -90 -101 -471 -78 -493 2 -3 193
-46 423 -96 505 -110 550 -122 510 -136 -16 -6 -286 -67 -600 -136 -313 -68
-655 -145 -760 -170 -104 -25 -194 -43 -200 -39 -27 17 14 944 48 1069 187
686 716 1094 1527 1178 19 2 25 -71 25 -307z m785 -1195 c-5 -436 -28 -623
-99 -825 -202 -568 -738 -975 -1351 -1024 l-155 -12 0 303 0 303 66 0 c345 0
735 287 849 626 48 141 72 428 37 440 -12 4 -227 52 -477 106 -250 54 -455
103 -455 110 0 6 61 22 135 36 196 36 1372 302 1382 313 63 62 73 7 68 -376z"/>
</g>
</svg>
