<?xml version="1.0" standalone="no"?>
<!DOCTYPE svg PUBLIC "-//W3C//DTD SVG 20010904//EN"
 "http://www.w3.org/TR/2001/REC-SVG-20010904/DTD/svg10.dtd">
<svg version="1.0" xmlns="http://www.w3.org/2000/svg"
 width="300.000000pt" height="294.000000pt" viewBox="0 0 300.000000 294.000000"
 preserveAspectRatio="xMidYMid meet">
<metadata>
Created by potrace 1.10, written by Peter Selinger 2001-2011
</metadata>
<g transform="translate(0.000000,294.000000) scale(0.100000,-0.100000)"
fill="#000000" stroke="none">
<path d="M2964 2924 c9 -8 18 -25 21 -37 3 -12 4 -667 3 -1455 -2 -787 0
-1432 5 -1432 4 0 7 662 7 1470 l0 1470 -26 0 c-23 0 -24 -1 -10 -16z"/>
<path d="M1385 2833 c-11 -2 -56 -11 -100 -19 -366 -70 -716 -341 -892 -688
-104 -206 -149 -409 -139 -636 10 -253 81 -473 218 -676 l54 -82 -93 -283
c-51 -156 -93 -298 -93 -316 0 -23 8 -38 31 -57 17 -14 38 -26 47 -26 8 0 155
61 326 136 l311 136 80 -26 c133 -43 223 -58 376 -63 173 -7 297 10 455 62
383 125 690 427 828 813 59 165 85 381 66 552 -64 595 -501 1064 -1084 1165
-82 14 -339 20 -391 8z m451 -62 c271 -67 478 -188 658 -382 216 -234 329
-527 329 -854 0 -156 -10 -224 -54 -369 -84 -272 -266 -519 -499 -675 -114
-76 -179 -110 -290 -149 -152 -53 -237 -67 -425 -67 -182 0 -267 13 -407 61
-39 13 -79 24 -89 24 -10 0 -151 -58 -315 -130 -163 -71 -307 -130 -318 -130
-27 0 -46 18 -46 43 0 10 41 142 90 292 50 150 90 281 90 291 0 11 -29 65 -64
121 -150 242 -216 485 -203 752 15 311 141 600 357 819 195 198 412 311 705
368 103 20 375 12 481 -15z"/>
<path d="M1385 2699 c-422 -61 -801 -380 -941 -793 -77 -227 -78 -494 -2 -729
30 -96 101 -235 161 -319 31 -42 58 -86 61 -96 4 -12 -20 -101 -59 -219 -36
-110 -65 -209 -65 -220 0 -30 34 -57 64 -49 13 3 117 47 230 96 114 50 215 90
225 90 10 0 49 -12 87 -26 147 -55 226 -68 409 -68 144 0 184 3 259 23 244 62
414 160 587 338 152 157 242 317 299 538 30 114 38 338 16 464 -86 495 -480
887 -971 966 -97 16 -264 18 -360 4z m431 -58 c378 -94 680 -364 809 -725 84
-233 88 -503 11 -734 -204 -612 -877 -932 -1482 -706 -51 19 -94 34 -97 34 -4
0 -109 -45 -234 -101 -273 -121 -269 -119 -254 -90 18 33 141 416 141 438 0
11 -26 57 -59 101 -210 291 -277 627 -191 962 108 423 467 754 905 835 111 20
341 13 451 -14z"/>
<path d="M1065 2211 c-51 -23 -127 -106 -158 -174 -66 -141 -60 -290 18 -452
71 -147 294 -406 450 -523 189 -141 498 -249 638 -223 128 23 267 128 301 226
28 80 32 174 10 220 -16 35 -31 44 -172 113 -168 81 -219 94 -270 68 -28 -15
-97 -90 -121 -133 -7 -14 -21 -9 -91 28 -92 49 -188 131 -256 221 l-46 59 41
44 c82 89 81 128 -7 340 -82 196 -92 205 -216 205 -57 0 -93 -6 -121 -19z
m230 -55 c30 -38 135 -304 135 -343 0 -19 -13 -49 -35 -79 -57 -80 -61 -90
-43 -128 24 -50 113 -152 176 -201 69 -54 181 -115 213 -115 17 0 43 21 90 71
63 69 67 72 110 71 32 0 79 -17 174 -62 147 -70 172 -89 181 -138 8 -40 -11
-132 -36 -183 -25 -48 -91 -106 -159 -138 -49 -23 -69 -26 -156 -26 -89 0
-112 5 -207 37 -207 71 -324 144 -484 303 -124 123 -253 289 -295 381 -90 198
-74 373 48 504 64 69 90 80 192 77 67 -2 75 -5 96 -31z"/>
<path d="M1114 2081 c-35 -21 -87 -96 -105 -148 -7 -21 -10 -71 -7 -122 3 -71
10 -98 37 -154 77 -160 303 -414 463 -520 134 -89 343 -167 448 -167 113 0
231 87 247 182 9 57 -15 83 -120 134 -118 57 -138 56 -192 -12 -87 -111 -139
-111 -329 -1 -142 82 -326 294 -326 376 0 30 10 48 50 96 28 33 50 67 50 77 0
30 -83 228 -106 254 -28 29 -67 31 -110 5z m136 -146 l49 -120 -50 -51 c-84
-85 -83 -134 6 -259 111 -155 237 -259 405 -331 68 -30 88 -34 123 -28 43 7
91 47 147 123 l26 33 104 -52 c58 -29 106 -53 107 -54 1 -1 -2 -20 -8 -42 -21
-78 -117 -144 -210 -144 -61 0 -230 54 -334 106 -144 73 -306 222 -447 411
-156 209 -176 360 -66 493 28 34 38 40 66 38 33 -3 35 -5 82 -123z"/>
</g>
</svg>
